<svg xmlns="http://www.w3.org/2000/svg" viewBox="0 0 140.52 133.03"><title>Asset 9</title><g id="Layer_2" data-name="Layer 2"><g id="Layer_1-2" data-name="Layer 1"><path d="M85.56,35.5a32.93,32.93,0,0,0-15.9,61.78v19.85a15.9,15.9,0,1,0,31.79,0V97.28A32.93,32.93,0,0,0,85.56,35.5Zm0,94.62a13,13,0,0,1-13-13v-7.81h26v7.81A13,13,0,0,1,85.56,130.13ZM83.73,92.49a72.1,72.1,0,0,0-2.89-12,72,72,0,0,0-4-6.29,14.25,14.25,0,0,0,1.52.52,26.41,26.41,0,0,0,6.33.7,37.15,37.15,0,0,0,8-1l.71-.2c-1.41,2.69-2.84,5.49-3.2,6.4-.82,2.08-1.48,7.21-2,12.18-.35,3.19-.37,11.6-.37,13.67h-4.1C83.85,104.23,84.17,95.88,83.73,92.49Zm15.6,2.63-.78.41v10.89H90.77c0-2,0-10.37.38-13.58.28-2.52,1-9.2,1.82-11.2.55-1.4,4.6-9,6.11-11.84l-2.47-1.53a10.65,10.65,0,0,1-2.06,2.09,6.93,6.93,0,0,1-2.8,1.27,34,34,0,0,1-7.06.88,23.77,23.77,0,0,1-5.58-.61,19.2,19.2,0,0,1-3.95-1.74,14.19,14.19,0,0,1-2.48-2l-2.27,1.81C73.95,75,77.81,80.77,78.16,81.6a71.21,71.21,0,0,1,2.69,11.25c.41,3.19.09,11.66,0,13.56H72.57V95.53l-.78-.41a30,30,0,1,1,27.55,0Z" style="fill:#fff"/><rect x="44.94" y="100.92" width="12.01" height="2.91" transform="translate(-57.27 65.41) rotate(-44.68)" style="fill:#fff"/><rect x="118.17" y="95.75" width="2.91" height="13.62" transform="translate(-35.52 130.12) rotate(-50.68)" style="fill:#fff"/><rect x="129.43" y="67.27" width="11.08" height="2.91" style="fill:#fff"/><rect x="111.71" y="31.48" width="17.92" height="2.91" transform="translate(12.27 95.34) rotate(-45.2)" style="fill:#fff"/><rect x="83.2" y="13.22" width="2.91" height="15.08" style="fill:#fff"/><path d="M41.34,41a2.58,2.58,0,0,0-.36-.65,17.14,17.14,0,0,1-3.14-9.61c0-4,1.58-8.85,2.53-11.73l.43-1.34c.37-1.19.93-2.8,1.51-4.49.73-2.11,1.49-4.32,2-5.89A13,13,0,0,1,46.6,3a28.64,28.64,0,0,1,2.2,4.13,26.14,26.14,0,0,0,2.49,4.58,21.33,21.33,0,0,0,5.57,5.16c.53.36,1.06.7,1.78,1.29a27.74,27.74,0,0,1,6.62,7.08c.59.9,1.17,4.76,1.36,7.83l2.9-.18c-.08-1.2-.52-7.25-1.84-9.25a31.05,31.05,0,0,0-7.38-7.87c-.63-.51-1.23-.91-1.83-1.31A18.34,18.34,0,0,1,53.57,10a25.48,25.48,0,0,1-2.14-4C49.95,2.78,49,.82,47.65.21a2.4,2.4,0,0,0-2,0c-2.46,1.11-4.14,6.22-4.16,6.27C41,8,40.28,10.2,39.56,12.27,39,14,38.4,15.63,38,16.84l-.42,1.3c-1,3-2.68,8.15-2.67,12.64A19.62,19.62,0,0,0,38.58,42Z" style="fill:#fff"/><path d="M47.41,15.76v7.81a18.51,18.51,0,0,0,3.65,10.21c1.8,2.47,2.44,7,2.72,8.89l2.88-.41c-.47-3.32-1.27-7.48-3.25-10.19a15.7,15.7,0,0,1-3.1-8.5V15.76Z" style="fill:#fff"/><path d="M48.81,83.81a14.76,14.76,0,0,1-7,1.72,35.31,35.31,0,0,1-12-2.59c-3.1-1.31-6.25-4-8.55-6l-.89-.76a74.11,74.11,0,0,1-6-6c-.9-1-1.8-2-2.69-2.88a56.69,56.69,0,0,1-5.2-6.55c-.39-.56-.73-1-1-1.37a13.79,13.79,0,0,1-2.6-6.69,36.37,36.37,0,0,1,6.72.68c4.29.7,8.58-.85,11.72-2l.43-.15c4.13-1.47,12.74-2.71,16.42-2.39a18.76,18.76,0,0,1,9.69,4.53l2-2.14a21.69,21.69,0,0,0-11.39-5.28c-4.16-.37-13.07.91-17.66,2.55l-.43.15c-2.83,1-6.71,2.4-10.27,1.84-7.22-1.17-9.45-1-9.94.84-.74,2.79,1.28,7.48,3,9.79.25.33.56.77.93,1.3A59.26,59.26,0,0,0,9.6,69.27c.87.91,1.76,1.87,2.65,2.84a75.93,75.93,0,0,0,6.24,6.29l.87.74c2.45,2.1,5.8,5,9.31,6.46a37.72,37.72,0,0,0,13,2.83h.45a18.24,18.24,0,0,0,8.24-2.17Z" style="fill:#fff"/><path d="M40.78,69.35a75.7,75.7,0,0,1-8.57-3c-1.1-.45-2-.81-2.88-1.13A31.22,31.22,0,0,1,24,62.84a72.79,72.79,0,0,1-6.83-5.07L15.35,60a73.87,73.87,0,0,0,7.22,5.35A34.06,34.06,0,0,0,28.29,68c.82.32,1.74.67,2.82,1.11A77.61,77.61,0,0,0,40,72.15a20,20,0,0,0,6.21,1h2.66V70.26H46.2A17.23,17.23,0,0,1,40.78,69.35Z" style="fill:#fff"/><rect x="77.2" y="117.86" width="17.08" height="2.91" style="fill:#fff"/><path d="M84.51,49.67l-.87.07.19,2.9.92-.07c2.89-.24,8.27-.7,11.48,2.4a7.64,7.64,0,0,1,2.33,6.18l2.87.44a10.59,10.59,0,0,0-3.18-8.71C94.1,48.86,87.86,49.38,84.51,49.67Z" style="fill:#fff"/></g></g></svg>