<svg xmlns="http://www.w3.org/2000/svg" viewBox="0 0 136.3 125.76"><title>Asset 10</title><g id="Layer_2" data-name="Layer 2"><g id="Layer_1-2" data-name="Layer 1"><path d="M117.25,60l3.46-3.12.2-.74c.26-1,1.49-6.09-.18-9.48a8,8,0,0,0-4.86-4l.14-.2a12.83,12.83,0,0,0,2-4.58A10.1,10.1,0,0,0,114.88,28c-4-3.34-9.43-1.81-10.28-1.54a7.63,7.63,0,0,0-4.07-5.61c-7.5-4-14.67,3.74-14.88,4L59.3,51.17c.16-.67.36-1.41.57-2.16a33.29,33.29,0,0,0,1.56-9.29c-.05-4.81-1.25-8.14-3.57-9.89a6.14,6.14,0,0,0-4.94-1.13c-1.48.28-6.84,2.13-11.06,14.57-2.69,7.94-9.45,42.91-10.54,48.6L3.19,122.24,7,125.76,36.13,94.29l.14-.73c.08-.4,7.74-40.5,10.49-48.63,3.3-9.75,6.91-11.08,7-11.13l0,0,.34-.09a1.17,1.17,0,0,1,.61.23c.34.26,1.47,1.44,1.51,5.81a28.68,28.68,0,0,1-1.37,7.87,23,23,0,0,0-1.07,5.45c0,2.76.79,4.5,2.48,5.14,2.34.9,4.42-1.1,5.1-1.85l28-28c0-.05,4.77-5.08,8.69-3A2.42,2.42,0,0,1,99.42,27c.43,1.56-.36,3.76-1,5.1L77.79,52.21l3.6,3.72,20.55-19.72.41-.51c.05-.08.16-.26.3-.52l4-3.91c1-.23,3.39-.57,4.9.69a5.05,5.05,0,0,1,1.4,5,7.46,7.46,0,0,1-1,2.32l-27,24,3.39,3.91,23.59-20c1.33,0,3.51.35,4.17,1.7.53,1.07.33,3.48,0,5.16L93,75l3.39,3.9,17-14.23a6.52,6.52,0,0,1,3.26.78c.83,1.3.33,3.42,0,4.43L106.84,80,72.94,113.1c-2.42,1.76-6.4,4.3-8,4.64L66,122.8c3.28-.7,9-4.82,10.12-5.63l34.37-33.5L121,72.77l.19-.4c.26-.56,2.46-5.63-.17-9.74A6.64,6.64,0,0,0,117.25,60Z" style="fill:#fff"/><path d="M126.11,10.29C113.52-2.31,90.17-6,68,14.77,58.65,6.09,48.18,1.36,37.57,1.08A36,36,0,0,0,10.8,11.74,36.71,36.71,0,0,0,0,38.91c.3,11.48,5.67,22.77,15.44,32.53,2.21,2.5,7.37,8.25,13.7,14.85V79c-3.57-3.78-7-7.52-10.07-11C-.69,48.27,2.76,26.82,14.32,15.26A31.18,31.18,0,0,1,36.57,6h.87c10,.27,19.93,5.09,28.78,13.94L68,21.75,69.75,20C90-.28,111.36,2.58,122.59,13.81a30,30,0,0,1,8.68,23.1c-.49,9.55-1.19,15.23-9.38,24l2.7,3.91c7.13-8.72,11.17-18.16,11.66-27.65A35,35,0,0,0,126.11,10.29Z" style="fill:#fff"/></g></g></svg>