<svg xmlns="http://www.w3.org/2000/svg" viewBox="0 0 141.71 93.03"><title>Asset 6</title><g id="Layer_2" data-name="Layer 2"><g id="Layer_1-2" data-name="Layer 1"><path d="M141.62,52,131,6.1a3.55,3.55,0,0,0-4.26-2.66L112.21,6.8A3.5,3.5,0,0,0,109.48,10L84.72,3.16c-.36-.12-9-2.89-13-3.16S51.28,8.32,46.28,11l-1.87,1.13L33,10.88l.14-.56A3.55,3.55,0,0,0,30.59,6L16.15,2.29a3.55,3.55,0,0,0-4.32,2.56L.11,50.51a3.55,3.55,0,0,0,2.56,4.32l14.44,3.71a3.59,3.59,0,0,0,.89.11,3.45,3.45,0,0,0,2.47-1A18,18,0,0,0,24.12,60a7.18,7.18,0,0,0-.58,4.46c.72,3.6,4.93,5.66,7.18,6.76l.66.33a7.65,7.65,0,0,1,2.06,2.27,24.08,24.08,0,0,0,1.5,1.94c1.52,1.72,3.64,1.95,5.35,2.13a6.06,6.06,0,0,1,1.94.39,3.4,3.4,0,0,1,1.12,1.63,8.92,8.92,0,0,0,2.55,3.55,10.29,10.29,0,0,0,3.78,1.68,7.91,7.91,0,0,1,1.93.71c.17.15.38.38.64.65a18.19,18.19,0,0,0,4.84,3.92,7.15,7.15,0,0,0,3.3.79,6.9,6.9,0,0,0,4.94-2c.3-.32.56-.62.8-.92,1.63.83,4.24,2.08,7.22,3.31A17.08,17.08,0,0,0,79.69,93a6.65,6.65,0,0,0,5.45-2.24,5.65,5.65,0,0,0,1.15-2.29,5.51,5.51,0,0,1,.53-1.34c.81-1.51,1.66-1.59,3.91-1.42,1.53.11,4.3-.27,5.53-4.13a10.92,10.92,0,0,0,.29-1.26c.44-2.33.78-2.43,1.32-2.43,3.68.09,5.9.13,8.42-2.58,1.47-1.57,1.55-3.72,1.61-5.15a8.48,8.48,0,0,1,.07-1c.09-.42.54-1.31,1.32-1.41l1.11-.14c2.57-.31,4.27-.51,5.63-1.9A6.78,6.78,0,0,0,118,58.15c-.1-.27-.2-.55-.31-.82l2.66.12a3.52,3.52,0,0,0,3.29,2.28,3.59,3.59,0,0,0,.81-.09L139,56.28A3.55,3.55,0,0,0,141.62,52ZM17.55,54.36,4.29,51,15.71,6.47,29,9.88Zm10.07,9.25c-.41-2.06,1.79-3.93,1.81-3.95h0c.07-.06.14-.12.21-.18.74-.8,1.84-1.32,4.46-2.1a5.76,5.76,0,0,1,3.07.6,3.29,3.29,0,0,1,.07,3.1,17.74,17.74,0,0,1-2.33,2.68c-1.28,1.29-2.32,2.35-2.57,3.59C30.86,66.62,27.92,65.12,27.62,63.61ZM38.06,73c-.43-.48-.82-1-1.24-1.61s-.75-1-1.16-1.51A19.41,19.41,0,0,0,39,67.17a39.86,39.86,0,0,1,3.39-2.86c2.36-1.62,5.42-1.64,6.38-.58.49.54.19,2.33-.53,3.13a24.81,24.81,0,0,1-2.52,2.32C44,70.61,42.42,72,41.93,73.87c-.41-.06-.81-.11-1.2-.15C39.59,73.6,38.51,73.48,38.06,73Zm12.78,8.14a7.85,7.85,0,0,1-2.28-.89,4.84,4.84,0,0,1-1.41-2.06,9.67,9.67,0,0,0-1.06-1.9c.62-.32,1.31-.74,2.15-1.24a23.55,23.55,0,0,1,5.21-2.65c1.32-.3,2.61-.15,2.93.34.18.3.2,1.74-.79,3.5a32.08,32.08,0,0,1-1.78,2.7,15.15,15.15,0,0,0-1.62,2.62C51.73,81.38,51.28,81.24,50.83,81.11ZM59,86.69a11.27,11.27,0,0,1-2.56-1.91,17.22,17.22,0,0,0,3.93-3.29c1-1.06,1.37-1.27,2.41-.88.78.29,1.07.85.71,3.38a9.94,9.94,0,0,0-.11,1.1c-.3.39-.65.82-1.09,1.29A3.1,3.1,0,0,1,59,86.69Zm54.08-23.84c-.34.35-1.52.49-3.16.68l-1.13.14a6,6,0,0,0-4.86,4.64,9.88,9.88,0,0,0-.17,1.71,4.72,4.72,0,0,1-.5,2.48c-1.16,1.24-1.56,1.34-5.29,1.26h-.15c-4.26,0-5.05,4.22-5.36,5.82a7.45,7.45,0,0,1-.16.77c-.42,1.3-.77,1.28-1.26,1.24-2.14-.16-5.73-.43-7.88,3.61a9.51,9.51,0,0,0-.87,2.2,1.62,1.62,0,0,1-.39.81c-.7.88-3.38,1-7-.44-3.09-1.27-5.85-2.61-7.3-3.36.26-1.83.73-6.15-3.4-7.69a5.6,5.6,0,0,0-4.28,0c.91-2.37.9-4.7-.1-6.24C58.26,68,55,67.75,52.52,68.31l-.27.07c1.25-2.28,1.43-5.46-.37-7.44-2.4-2.65-6.75-2.56-10.15-1a6.76,6.76,0,0,0-1.22-4.43c-1.62-2.19-5.88-2.63-7.57-2.13-3,.88-4.76,1.61-6.22,3.12-.83-.07-2.86-1.38-4.66-3L32,14.95l6.64.73-.08.08c-.48.47-4.68,4.7-3.36,9.33a7.77,7.77,0,0,0,6.64,5.45l.24,0,9.24-1.19.31-.15c.8-.39,7.86-3.84,9.73-5.18.39-.28.66-.49.88-.67.43-.34.43-.34,3.26-1,3.39-.85,4.25-.74,8.35-.22l1.09.14c4.7.59,9.87,2.23,12,3.82s18.79,19.76,24.32,27.8a25.84,25.84,0,0,1,2.82,5.69C114.63,61.15,114.06,61.85,113.07,62.85Zm1.6-11.34c-5.73-8.33-22.61-26.83-25.28-28.79s-8.49-3.91-14-4.6L74.33,18c-4.29-.55-5.73-.73-9.88.31-3.42.86-3.7.93-4.83,1.82-.18.14-.4.31-.72.54-1.16.83-5.8,3.19-8.83,4.67l-8,1A3.61,3.61,0,0,1,39.16,24c-.51-1.8,1.26-4.16,2.1-5.05l7.08-4.28c9.47-5.09,21-10.51,23.1-10.47,2.92.2,9.65,2.21,12.08,3l26.84,7.46,8.94,38.64-3.66-.17C115.33,52.52,115,52,114.67,51.51Zm9.42,3.94L113.74,10.71l13.34-3.09,10.35,44.74Z" style="fill:#fff"/></g></g></svg>