<svg xmlns="http://www.w3.org/2000/svg" viewBox="0 0 136.86 137.18"><title>Asset 11</title><g id="Layer_2" data-name="Layer 2"><g id="Layer_1-2" data-name="Layer 1"><path d="M69,20.9a48,48,0,1,0,48,48A48.07,48.07,0,0,0,69,20.9Zm0,90.35a42.33,42.33,0,1,1,42.33-42.33A42.38,42.38,0,0,1,69,111.25Z" style="fill:#fff"/><rect x="66.12" y="3.81" width="5.68" height="10.3" style="fill:#fff"/><rect x="88.09" y="3.81" width="12.12" height="5.68" transform="translate(38.85 83.14) rotate(-58.17)" style="fill:#fff"/><rect x="40.16" y="0.77" width="5.68" height="11.76" transform="translate(2.14 21.6) rotate(-28.89)" style="fill:#fff"/><rect x="23.65" y="21.17" width="5.68" height="11.81" transform="translate(-11.38 27.47) rotate(-46.22)" style="fill:#fff"/><rect x="104.19" y="24.23" width="11.62" height="5.68" transform="translate(12.75 85.18) rotate(-44.68)" style="fill:#fff"/><rect x="124.34" y="40.3" width="11.73" height="5.68" transform="translate(-3.07 75.56) rotate(-32.01)" style="fill:#fff"/><rect x="3.85" y="37.05" width="5.68" height="12.18" transform="translate(-33.83 26.88) rotate(-59.32)" style="fill:#fff"/><rect x="3.05" y="66.07" width="11.01" height="5.68" style="fill:#fff"/><rect x="122.74" y="66.07" width="10.83" height="5.68" style="fill:#fff"/><rect x="0.64" y="91.54" width="12.09" height="5.68" transform="translate(-46.25 15.96) rotate(-29.97)" style="fill:#fff"/><rect x="128.25" y="89.3" width="5.68" height="10.16" transform="translate(-22.73 143.68) rotate(-53.52)" style="fill:#fff"/><rect x="21.22" y="107.16" width="11.43" height="5.68" transform="translate(-70.54 52.34) rotate(-45.63)" style="fill:#fff"/><rect x="106.98" y="104.07" width="5.68" height="11.87" transform="translate(-45.57 114.01) rotate(-46.52)" style="fill:#fff"/><rect x="66.12" y="123.15" width="5.68" height="9.94" style="fill:#fff"/><rect x="37.71" y="128.47" width="10.05" height="5.68" transform="translate(-88.87 89.48) rotate(-54.34)" style="fill:#fff"/><rect x="91.22" y="126.07" width="5.68" height="10.48" transform="translate(-61.54 87.95) rotate(-38.81)" style="fill:#fff"/><path d="M81,47.92c-1.83,1.35-12.55,11.62-17.08,16-2.48-2.28-6.36-5.81-6.76-6.12C51,53,44,54.63,40.3,58.8c-3.52,4-4.56,11,1.58,17.16l8.71,7.77,8,8a7.28,7.28,0,0,0,10.29,0L96.1,64.61c4-4,4-9.84.17-14.32C92.72,46.15,86.34,44,81,47.92ZM92.08,60.59,64.91,87.76a1.59,1.59,0,0,1-2.25,0L54.49,79.6l-8.71-7.77c-3.69-3.68-3-7.3-1.22-9.27a6,6,0,0,1,4.5-2,7.5,7.5,0,0,1,4.6,1.74c.64.54,7.85,7.13,8.33,7.59l2,2,2-2C67.7,68.15,82.73,53.72,84.39,52.5c2.82-2.08,6.07-.25,7.57,1.49C92.69,54.84,94.85,57.82,92.08,60.59Z" style="fill:#fff"/></g></g></svg>